<svg xmlns="http://www.w3.org/2000/svg" viewBox="0 0 468.7 521.99"><defs><style>.cls-1{fill:#15171d;}.cls-2{fill:#282d36;}.cls-3{fill:#f3a93f;}.cls-4{fill:#fed66e;}</style></defs><title>Risorsa 2</title><g id="Livello_2" data-name="Livello 2"><g id="Livello_1-2" data-name="Livello 1"><g id="Livello_3" data-name="Livello 3"><polygon class="cls-1" points="233.92 0.17 0 129.79 0 389.05 233.92 518.68 233.92 0.17"/><polygon class="cls-2" points="233.92 0.17 468.7 129.79 468.7 389.05 233.92 518.68 233.92 0.17"/><polygon class="cls-3" points="233.92 0 0 111.92 0 142.8 233.92 53.34 233.92 0"/><polygon class="cls-3" points="233.92 470.55 0 381.1 0 410.07 233.92 521.99 233.92 470.55"/><polygon class="cls-3" points="233.92 238.13 0 248.35 0 275.55 233.92 285.76 233.92 238.13"/><polygon class="cls-4" points="233.92 0 468.7 111.92 468.7 142.8 233.92 53.34 233.92 0"/><polygon class="cls-4" points="233.92 470.55 468.7 381.1 468.7 410.07 233.92 521.99 233.92 470.55"/><polygon class="cls-4" points="233.92 238.13 468.7 248.35 468.7 275.55 233.92 285.76 233.92 238.13"/></g></g></g></svg>